<svg width="14" height="16" viewBox="0 0 14 16" fill="none" xmlns="http://www.w3.org/2000/svg">
<path fill-rule="evenodd" clip-rule="evenodd" d="M10.7203 11.2773L13.9888 15.1128L13.4219 15.6L10.1445 11.7645C9.01661 12.6208 7.74698 13.0489 6.33563 13.0489C5.47936 13.0489 4.66001 12.8821 3.87759 12.5484C3.09517 12.2148 2.42198 11.766 1.85801 11.2021C1.29404 10.6381 0.845244 9.96493 0.511628 9.18248C0.178012 8.40004 0.0111927 7.5807 0.0111694 6.72445C0.0111462 5.86821 0.177966 5.04886 0.511628 4.26642C0.84529 3.48397 1.29408 2.81078 1.85801 2.24683C2.42193 1.68288 3.09513 1.23409 3.87759 0.900452C4.66006 0.566813 5.47941 0.399994 6.33563 0.399994C7.19185 0.399994 8.01119 0.566813 8.79366 0.900452C9.57613 1.23409 10.2493 1.68288 10.8132 2.24683C11.3772 2.81078 11.826 3.48397 12.1596 4.26642C12.4933 5.04886 12.6601 5.86821 12.6601 6.72445C12.6601 7.60432 12.4888 8.43695 12.1463 9.22235C11.8038 10.0077 11.3285 10.6928 10.7202 11.2774L10.7203 11.2773ZM6.3357 12.3048C7.34547 12.3048 8.27849 12.0553 9.13476 11.5563C9.99103 11.0573 10.6687 10.3797 11.1676 9.52345C11.6666 8.6672 11.9161 7.73418 11.9161 6.72438C11.9162 5.71458 11.6667 4.78156 11.1676 3.92532C10.6686 3.06907 9.99098 2.39146 9.13476 1.89248C8.27854 1.39349 7.34552 1.144 6.3357 1.144C5.32587 1.144 4.39285 1.39349 3.53663 1.89248C2.68041 2.39146 2.0028 3.06907 1.50379 3.92532C1.00479 4.78156 0.755294 5.71458 0.755318 6.72438C0.755341 7.73418 1.00483 8.6672 1.50379 9.52345C2.00275 10.3797 2.68036 11.0573 3.53663 11.5563C4.3929 12.0553 5.32592 12.3048 6.3357 12.3048Z" fill="#030303"/>
</svg>
